<svg width="48" height="48" viewBox="0 0 48 48" fill="none" xmlns="http://www.w3.org/2000/svg">
<path d="M33.4588 17.3638C33.3129 17.3543 33.1029 17.4749 32.6828 17.7161L21.938 23.8856C21.1019 24.3657 20.6839 24.6057 20.3631 24.9248C19.9355 25.3502 19.6279 25.8802 19.4714 26.4614C19.354 26.8974 19.354 27.3777 19.354 28.3384V38.1589C19.354 40.6202 21.3588 42.6155 23.8318 42.6155C25.8592 42.6155 27.6337 41.2596 28.1575 39.3103L33.7427 18.5254C33.868 18.0591 33.9307 17.826 33.8836 17.6882C33.8209 17.5045 33.6533 17.3765 33.4588 17.3638Z" fill="#0C60F2" style="fill:#0C60F2;fill:color(display-p3 0.0471 0.3765 0.9490);fill-opacity:1;"/>
<path d="M18.639 8.30467C18.431 8.24181 18.1694 8.27579 17.6464 8.34376L12.0998 9.06445C5.64338 9.90335 2.03266 16.9069 5.1197 22.6033C7.60757 27.1942 13.424 28.8306 17.9648 26.2173L17.9694 26.2147C18.8253 25.7211 19.3524 24.8124 19.3533 23.8291L19.3533 9.83245C19.3533 9.3083 19.3533 9.04623 19.2636 8.8494C19.144 8.58697 18.9164 8.38847 18.639 8.30467Z" fill="#0095FF" style="fill:#0095FF;fill:color(display-p3 0.0000 0.5833 1.0000);fill-opacity:1;"/>
<path d="M20.9547 9.19739L31.789 15.4881C32.5388 15.9235 32.9138 16.1412 33.3066 16.2469C33.8305 16.3879 34.382 16.3874 34.9056 16.2456C35.2983 16.1392 35.6729 15.9208 36.422 15.4841L42.232 12.0973C43.4877 11.3653 44.1732 9.93673 43.9621 8.49174C43.6805 6.5647 41.915 5.2213 39.9961 5.47386L21.2021 7.94733C20.6725 8.01702 20.4077 8.05187 20.3031 8.15039C20.1636 8.28175 20.1228 8.48799 20.2016 8.66313C20.2608 8.79449 20.4921 8.92879 20.9547 9.19739Z" fill="#00CCFF" style="fill:#00CCFF;fill:color(display-p3 0.0000 0.8000 1.0000);fill-opacity:1;"/>
</svg>
