<?xml version="1.0" standalone="no"?><!DOCTYPE svg PUBLIC "-//W3C//DTD SVG 1.1//EN" "http://www.w3.org/Graphics/SVG/1.1/DTD/svg11.dtd"><svg t="1750065564300" class="icon" viewBox="0 0 1024 1024" version="1.1" xmlns="http://www.w3.org/2000/svg" p-id="13191" xmlns:xlink="http://www.w3.org/1999/xlink" width="200" height="200"><path d="M435.925333 102.826667c106.666667 84.053333 194.645333 181.973333 237.184 313.728 13.226667-16.554667 25.344-37.461333 29.781334-73.088 4.394667-35.584 40.106667-44.8 59.306666-12.330667 117.546667 198.997333 117.205333 492.032-139.690666 578.816-25.301333 8.533333-49.834667-17.28-40.021334-42.112 38.997333-98.346667 43.989333-168.874667 25.770667-224.128-14.848-45.141333-46.72-84.522667-97.749333-122.325333-25.216 72.96-94.506667 121.898667-94.506667 203.946666 0 49.834667 38.912 107.434667 62.037333 149.418667 12.8 23.253333-7.978667 51.84-34.048 46.848-272.170667-52.053333-323.285333-352.085333-164.778666-536.746667C344.32 308.906667 384.170667 229.12 384.170667 128c0-26.197333 31.189333-41.344 51.754666-25.173333z" fill="#FF4400" p-id="13192"></path></svg>