<?xml version="1.0" encoding="UTF-8"?>
<svg version="1.1" xmlns="http://www.w3.org/2000/svg" width="256" height="256">
<path d="M0 0 C6.28291053 3.58660075 11.12126857 9.02018802 16.0546875 14.2265625 C16.90160156 13.08960938 16.90160156 13.08960938 17.765625 11.9296875 C19.94812689 9.35239858 21.8506915 7.77425227 24.6796875 5.9765625 C25.45570313 5.47640625 26.23171875 4.97625 27.03125 4.4609375 C31.38016129 1.8079337 35.01866839 1.62433491 40.0546875 2.2265625 C44.12223374 4.34876054 46.08002913 7.14670416 47.5859375 11.484375 C48.23509754 15.28196122 48.0031958 18.95042328 47.8671875 22.7890625 C47.57412483 29.60627288 47.57412483 29.60627288 50.5546875 35.5390625 C53.43156901 38.12280206 56.70899942 39.69917314 60.22265625 41.2578125 C63.58354588 43.03499934 65.39475422 45.90669595 67.0546875 49.2265625 C67.04591335 52.31506476 66.92297798 55.39074837 66.796875 58.4765625 C66.92449219 59.8378125 66.92449219 59.8378125 67.0546875 61.2265625 C68.0446875 61.8865625 69.0346875 62.5465625 70.0546875 63.2265625 C70.44976643 67.57243078 70.50799752 69.54659747 68.0546875 73.2265625 C71.3546875 73.8865625 74.6546875 74.5465625 78.0546875 75.2265625 C78.0546875 76.5465625 78.0546875 77.8665625 78.0546875 79.2265625 C73.08552114 78.71251081 68.76442399 77.99271368 64.0546875 76.2265625 C65.23213335 79.75890005 66.01074391 80.08964325 69.1171875 81.9140625 C69.85066406 82.35105469 70.58414063 82.78804688 71.33984375 83.23828125 C72.18869141 83.72748047 72.18869141 83.72748047 73.0546875 84.2265625 C72.7246875 85.5465625 72.3946875 86.8665625 72.0546875 88.2265625 C68.2636756 86.77705795 64.6672237 85.07483684 61.0546875 83.2265625 C60.7453125 84.1753125 60.4359375 85.1240625 60.1171875 86.1015625 C59.0546875 89.2265625 59.0546875 89.2265625 58.0546875 91.2265625 C58.8384375 90.9171875 59.6221875 90.6078125 60.4296875 90.2890625 C63.53043133 89.38022379 65.7054253 89.10974125 68.8671875 88.9765625 C72.88196692 88.64748222 75.17231451 87.77284984 78.4296875 85.4140625 C89.38917924 77.53158577 101.97064069 76.83817785 115.0546875 78.2265625 C120.1097448 79.36533914 124.29111752 81.04450866 128.58984375 83.92578125 C130.90180881 85.41056188 130.90180881 85.41056188 133.1640625 85.13671875 C135.49923809 84.01255364 136.65127835 82.65056136 138.3046875 80.6640625 C140.90497603 77.94048443 142.4920629 76.69324952 146.3046875 76.5390625 C150.0546875 77.2265625 150.0546875 77.2265625 152.1171875 78.7890625 C153.55635482 82.53089753 153.27283055 84.37979497 152.0546875 88.2265625 C149.61182347 91.15697293 146.92030299 93.7134373 144.0546875 96.2265625 C144.46460938 97.08378906 144.87453125 97.94101563 145.296875 98.82421875 C145.83570313 99.96761719 146.37453125 101.11101562 146.9296875 102.2890625 C147.46335938 103.41441406 147.99703125 104.53976563 148.546875 105.69921875 C153.46270969 117.19921544 154.29557805 131.39457823 150.0546875 143.2890625 C143.89962678 156.69952998 134.67550616 165.84629603 121.02734375 171.53515625 C116.84240304 173.00195725 113.26011216 173.33749103 108.8046875 173.2890625 C107.72703125 173.28003906 106.649375 173.27101562 105.5390625 173.26171875 C104.71921875 173.25011719 103.899375 173.23851562 103.0546875 173.2265625 C103.66578369 174.3911499 104.27687988 175.5557373 104.90649414 176.75561523 C107.1784114 181.09961083 109.42068778 185.45834712 111.65454102 189.82202148 C112.62346609 191.70472166 113.60027 193.58338947 114.58520508 195.45776367 C116.00376492 198.16070497 117.39288394 200.87712329 118.77734375 203.59765625 C119.21998062 204.42615585 119.66261749 205.25465546 120.1186676 206.10826111 C122.96023577 211.78550244 123.64092177 216.02292475 122.0546875 222.2265625 C121.7246875 222.8865625 121.3946875 223.5465625 121.0546875 224.2265625 C122.4159375 224.38125 122.4159375 224.38125 123.8046875 224.5390625 C127.07430325 225.23071199 128.59186487 226.04791171 131.0546875 228.2265625 C130.9296875 230.5390625 130.9296875 230.5390625 130.0546875 233.2265625 C83.34116363 261.57040571 -16.0408463 247.43894945 -68.0078125 241.3515625 C-69.30267578 241.20235352 -70.59753906 241.05314453 -71.93164062 240.89941406 C-94.13962642 238.06101755 -94.13962642 238.06101755 -102.9453125 232.2265625 C-102.8203125 229.9140625 -102.8203125 229.9140625 -101.9453125 227.2265625 C-98.73797946 225.20454819 -96.75376814 224.2265625 -92.9453125 224.2265625 C-93.42742187 223.22496094 -93.90953125 222.22335938 -94.40625 221.19140625 C-95.04455304 219.8490925 -95.682558 218.50663696 -96.3203125 217.1640625 C-96.63742188 216.50728516 -96.95453125 215.85050781 -97.28125 215.17382812 C-101.42416288 206.41329359 -102.48613493 198.17876452 -102.81347656 188.58886719 C-102.94579505 186.21791598 -103.22783912 183.90145972 -103.53125 181.546875 C-104.93030752 167.04933406 -100.76103085 154.74500357 -96.0078125 141.2265625 C-95.68756104 140.29120667 -95.36730957 139.35585083 -95.03735352 138.39215088 C-88.81499367 120.4534794 -88.81499367 120.4534794 -80.90698242 115.58740234 C-77.48317267 113.21225418 -76.45823703 109.83848471 -75.0703125 106.0390625 C-74.41897432 104.43832739 -73.75979075 102.84076739 -73.09375 101.24609375 C-72.75053711 100.42189941 -72.40732422 99.59770508 -72.05371094 98.74853516 C-62.4931674 76.99513984 -48.02263716 56.91636744 -32.8203125 38.7890625 C-32.34142578 38.20930664 -31.86253906 37.62955078 -31.36914062 37.03222656 C-28.82791142 34.05590286 -26.49171273 31.86083426 -23.15234375 29.80078125 C-20.12401026 27.74269456 -19.98871217 27.38909512 -18.96484375 23.5546875 C-18.86844436 22.19697988 -18.80035188 20.83702317 -18.7578125 19.4765625 C-18.18295816 12.0700448 -17.09703176 5.94108877 -12.1953125 0.1640625 C-8.01482447 -1.57780751 -4.16555344 -1.6561839 0 0 Z M56.0546875 124.2265625 C49.97531342 131.59725948 42.0546875 141.33408582 42.0546875 151.2265625 C42.99054688 151.31744141 42.99054688 151.31744141 43.9453125 151.41015625 C46.0546875 152.2265625 46.0546875 152.2265625 47.1015625 154.51171875 C47.33359375 155.42824219 47.565625 156.34476563 47.8046875 157.2890625 C48.04703125 158.20816406 48.289375 159.12726563 48.5390625 160.07421875 C48.70921875 160.78449219 48.879375 161.49476563 49.0546875 162.2265625 C52.4649723 159.55679669 53.08398589 156.43240393 54.1796875 152.3515625 C54.51226562 151.13726562 54.84484375 149.92296875 55.1875 148.671875 C55.61675781 146.96644531 55.61675781 146.96644531 56.0546875 145.2265625 C56.25707031 144.42605469 56.45945313 143.62554687 56.66796875 142.80078125 C57.21298481 139.17284603 57.15968397 135.57202746 57.1171875 131.9140625 C57.11267578 131.17349609 57.10816406 130.43292969 57.10351562 129.66992188 C57.09180925 127.85543351 57.07387648 126.04098716 57.0546875 124.2265625 C56.7246875 124.2265625 56.3946875 124.2265625 56.0546875 124.2265625 Z M71.0546875 160.2265625 C70.3946875 163.1965625 69.7346875 166.1665625 69.0546875 169.2265625 C72.3546875 168.5665625 75.6546875 167.9065625 79.0546875 167.2265625 C76.47683904 164.57904246 74.13820652 162.28224185 71.0546875 160.2265625 Z " fill="#958874" transform="translate(102.9453125,9.7734375)"/>
<path d="M0 0 C6.28291053 3.58660075 11.12126857 9.02018802 16.0546875 14.2265625 C16.90160156 13.08960938 16.90160156 13.08960938 17.765625 11.9296875 C19.94812689 9.35239858 21.8506915 7.77425227 24.6796875 5.9765625 C25.45570313 5.47640625 26.23171875 4.97625 27.03125 4.4609375 C31.38016129 1.8079337 35.01866839 1.62433491 40.0546875 2.2265625 C44.12223374 4.34876054 46.08002913 7.14670416 47.5859375 11.484375 C48.23509754 15.28196122 48.0031958 18.95042328 47.8671875 22.7890625 C47.57412483 29.60627288 47.57412483 29.60627288 50.5546875 35.5390625 C53.43156901 38.12280206 56.70899942 39.69917314 60.22265625 41.2578125 C63.58354588 43.03499934 65.39475422 45.90669595 67.0546875 49.2265625 C67.04591335 52.31506476 66.92297798 55.39074837 66.796875 58.4765625 C66.92449219 59.8378125 66.92449219 59.8378125 67.0546875 61.2265625 C68.0446875 61.8865625 69.0346875 62.5465625 70.0546875 63.2265625 C70.44976643 67.57243078 70.50799752 69.54659747 68.0546875 73.2265625 C71.3546875 73.8865625 74.6546875 74.5465625 78.0546875 75.2265625 C78.0546875 76.5465625 78.0546875 77.8665625 78.0546875 79.2265625 C73.08552114 78.71251081 68.76442399 77.99271368 64.0546875 76.2265625 C65.23213335 79.75890005 66.01074391 80.08964325 69.1171875 81.9140625 C69.85066406 82.35105469 70.58414063 82.78804688 71.33984375 83.23828125 C72.18869141 83.72748047 72.18869141 83.72748047 73.0546875 84.2265625 C72.7246875 85.5465625 72.3946875 86.8665625 72.0546875 88.2265625 C68.2636756 86.77705795 64.6672237 85.07483684 61.0546875 83.2265625 C60.7453125 84.1753125 60.4359375 85.1240625 60.1171875 86.1015625 C59.0546875 89.2265625 59.0546875 89.2265625 58.0546875 91.2265625 C58.8590625 90.8965625 59.6634375 90.5665625 60.4921875 90.2265625 C64.79273545 89.01939115 68.62434931 89.04934897 73.0546875 89.2265625 C73.0546875 91.2265625 73.0546875 91.2265625 71.1796875 93.3515625 C69.0546875 95.2265625 69.0546875 95.2265625 67.0546875 95.2265625 C66.78785156 95.92394531 66.52101562 96.62132813 66.24609375 97.33984375 C62.5592295 106.27293451 58.02892073 113.69619442 51.29296875 120.61328125 C48.76495098 123.56484127 47.13057641 126.6140793 45.3046875 130.0390625 C41.60430208 136.34232424 38.00190861 138.35063318 31.1015625 140.44140625 C29.59335938 140.83005859 29.59335938 140.83005859 28.0546875 141.2265625 C26.78381991 141.64312466 25.51297839 142.05976641 24.2421875 142.4765625 C13.06410568 145.1066994 -2.52865393 147.57961294 -12.78271484 141.41113281 C-15.61491411 139.46635064 -18.27580404 137.39321792 -20.9453125 135.2265625 C-38.87534321 121.61071164 -56.38862607 113.9703114 -78.9453125 115.2265625 C-69.43618285 86.90932008 -51.69557968 61.25592838 -32.6328125 38.5390625 C-31.93188477 37.69251099 -31.93188477 37.69251099 -31.21679688 36.82885742 C-28.729147 33.92937693 -26.42249806 31.82832061 -23.1640625 29.81640625 C-20.13377325 27.75129875 -19.98923968 27.39107065 -18.96484375 23.5546875 C-18.86844436 22.19697988 -18.80035188 20.83702317 -18.7578125 19.4765625 C-18.18295816 12.0700448 -17.09703176 5.94108877 -12.1953125 0.1640625 C-8.01482447 -1.57780751 -4.16555344 -1.6561839 0 0 Z " fill="#84909D" transform="translate(102.9453125,9.7734375)"/>
<path d="M0 0 C-1.99204281 2.34057519 -3.991251 4.6738135 -6 7 C-6.5273877 7.61311035 -7.05477539 8.2262207 -7.59814453 8.85791016 C-18.78504605 21.62188023 -18.78504605 21.62188023 -27.0625 22.5625 C-28.12210938 22.61664063 -29.18171875 22.67078125 -30.2734375 22.7265625 C-33.1734252 23.01739221 -34.17377362 23.40022127 -36.1875 25.4375 C-40.38555911 31.37268701 -40.70296895 35.07043025 -39.6875 42.19140625 C-38.72887028 46.70210147 -37.25403282 49.74596718 -34 53 C-29.52190737 55.71747501 -25.09538408 55.64396639 -20 55 C-16.23632227 53.22080689 -14.49373334 51.70768445 -12.125 48.3125 C-10.39449455 43.21712284 -10.35200592 38.35630524 -11.7800293 33.16357422 C-12 30 -12 30 -10.27758789 27.48291016 C-9.43446045 26.67644043 -8.59133301 25.8699707 -7.72265625 25.0390625 C-6.81708984 24.15605469 -5.91152344 23.27304688 -4.97851562 22.36328125 C-4.00687845 21.45012907 -3.03486834 20.53737356 -2.0625 19.625 C-1.0928185 18.69044133 -0.12469895 17.7542591 0.84179688 16.81640625 C3.21296602 14.52781513 5.59888224 12.25708235 8 10 C11 11 11 11 12.31640625 13.00390625 C18.31210892 25.3148318 19.88559838 36.60766962 16.09375 50.0546875 C12.06356803 60.90739181 3.97735936 70.43428578 -6.5625 75.4375 C-18.60771985 80.05729535 -30.79900324 80.48753938 -43 76 C-55.99643922 69.58865498 -63.00970699 59.88072556 -68.3125 46.75 C-70.66050373 33.94270695 -68.98548988 21.58585653 -61.75 10.625 C-54.78815397 1.50512951 -45.58813526 -5.33626292 -34.1796875 -7.71875 C-21.68599689 -9.33083911 -10.31110067 -7.33674471 0 0 Z " fill="#DBD4C5" transform="translate(233,100)"/>
<path d="M0 0 C1.80315297 0.03610776 3.6058333 0.10589817 5.40673828 0.20288086 C6.36347443 0.23119492 7.32021057 0.25950897 8.30593872 0.28868103 C11.36473658 0.38655222 14.41995288 0.5270606 17.47705078 0.66772461 C19.5277419 0.73748372 21.57852576 0.80457155 23.62939453 0.86889648 C39.56545518 1.41593446 39.56545518 1.41593446 45.60205078 2.60522461 C44.72705078 9.48022461 44.72705078 9.48022461 43.60205078 10.60522461 C42.90482419 23.75867249 42.32630729 37.22330268 51.00439453 47.98413086 C52.60373766 49.69719052 52.60373766 49.69719052 54.74658203 51.15209961 C56.60205078 52.60522461 56.60205078 52.60522461 57.35205078 55.29272461 C57.43455078 56.05584961 57.51705078 56.81897461 57.60205078 57.60522461 C58.65392578 57.26491211 58.65392578 57.26491211 59.72705078 56.91772461 C63.53456919 56.50386391 65.22087194 57.84961252 68.60205078 59.60522461 C78.0271152 62.83778803 88.91110926 62.45111823 98.60205078 60.60522461 C97.22150293 65.8206276 94.06709643 68.85004915 89.60205078 71.60522461 C87.00173676 72.83592956 84.35324743 73.89636705 81.66455078 74.91772461 C80.99665527 75.17223389 80.32875977 75.42674316 79.640625 75.68896484 C71.16187888 78.72358309 62.64606359 78.83421325 53.72705078 78.91772461 C52.18984375 78.96123047 52.18984375 78.96123047 50.62158203 79.00561523 C43.4640196 79.06473106 38.02763179 77.75744684 31.60205078 74.60522461 C31.60205078 73.28522461 31.60205078 71.96522461 31.60205078 70.60522461 C30.88404297 70.99323242 30.16603516 71.38124023 29.42626953 71.78100586 C26.60205078 72.60522461 26.60205078 72.60522461 24.05908203 71.58569336 C7.75482013 60.53154829 -2.79791085 48.06692541 -7.39794922 28.60522461 C-8.29201402 23.4155381 -8.53698916 18.17535872 -8.71044922 12.91772461 C-8.74783203 11.86198242 -8.78521484 10.80624023 -8.82373047 9.71850586 C-8.04150619 3.99893937 -6.01133072 0.28603685 0 0 Z " fill="#DAD3C4" transform="translate(97.39794921875,163.394775390625)"/>
<path d="M0 0 C6.28291053 3.58660075 11.12126857 9.02018802 16.0546875 14.2265625 C16.90160156 13.08960938 16.90160156 13.08960938 17.765625 11.9296875 C19.94812689 9.35239858 21.8506915 7.77425227 24.6796875 5.9765625 C25.45570313 5.47640625 26.23171875 4.97625 27.03125 4.4609375 C31.38016129 1.8079337 35.01866839 1.62433491 40.0546875 2.2265625 C44.12223374 4.34876054 46.08002913 7.14670416 47.5859375 11.484375 C48.23509754 15.28196122 48.0031958 18.95042328 47.8671875 22.7890625 C47.57412483 29.60627288 47.57412483 29.60627288 50.5546875 35.5390625 C53.43156901 38.12280206 56.70899942 39.69917314 60.22265625 41.2578125 C63.58354588 43.03499934 65.39475422 45.90669595 67.0546875 49.2265625 C67.04591335 52.31506476 66.92297798 55.39074837 66.796875 58.4765625 C66.92449219 59.8378125 66.92449219 59.8378125 67.0546875 61.2265625 C68.0446875 61.8865625 69.0346875 62.5465625 70.0546875 63.2265625 C70.44976643 67.57243078 70.50799752 69.54659747 68.0546875 73.2265625 C71.3546875 73.8865625 74.6546875 74.5465625 78.0546875 75.2265625 C78.0546875 76.5465625 78.0546875 77.8665625 78.0546875 79.2265625 C73.08552114 78.71251081 68.76442399 77.99271368 64.0546875 76.2265625 C65.23213335 79.75890005 66.01074391 80.08964325 69.1171875 81.9140625 C69.85066406 82.35105469 70.58414063 82.78804688 71.33984375 83.23828125 C72.18869141 83.72748047 72.18869141 83.72748047 73.0546875 84.2265625 C72.7246875 85.5465625 72.3946875 86.8665625 72.0546875 88.2265625 C68.2636756 86.77705795 64.6672237 85.07483684 61.0546875 83.2265625 C60.7453125 84.1753125 60.4359375 85.1240625 60.1171875 86.1015625 C59.0546875 89.2265625 59.0546875 89.2265625 58.0546875 91.2265625 C58.8590625 90.8965625 59.6634375 90.5665625 60.4921875 90.2265625 C64.79273545 89.01939115 68.62434931 89.04934897 73.0546875 89.2265625 C73.0546875 89.8865625 73.0546875 90.5465625 73.0546875 91.2265625 C69.84928654 94.43196346 67.05480832 96.3625478 62.8046875 97.9140625 C57.65590544 99.81383901 53.05547191 102.3890323 48.3046875 105.1015625 C23.69952713 119.04235861 23.69952713 119.04235861 11.0546875 118.2265625 C10.7246875 116.9065625 10.3946875 115.5865625 10.0546875 114.2265625 C11.10785156 114.01902344 12.16101563 113.81148438 13.24609375 113.59765625 C30.68392722 110.2451689 30.68392722 110.2451689 44.54296875 100.10546875 C46.25248544 97.19689226 47.74390067 94.33266825 49.0546875 91.2265625 C48.30832031 91.11570312 47.56195313 91.00484375 46.79296875 90.890625 C42.57742436 89.86831038 39.71874939 87.62813305 37.0546875 84.2265625 C36.6171875 80.3515625 36.6171875 80.3515625 37.0546875 77.2265625 C38.0446875 77.2265625 39.0346875 77.2265625 40.0546875 77.2265625 C40.2815625 78.3403125 40.5084375 79.4540625 40.7421875 80.6015625 C41.66347683 84.31404388 41.66347683 84.31404388 44.3671875 85.6640625 C48.19749467 86.50140571 48.19749467 86.50140571 52.0546875 86.2265625 C54.43683703 83.52679303 55.07059222 81.95817982 54.9921875 78.3515625 C54.19612624 75.69802497 53.38838609 73.93520871 51.9921875 71.6015625 C50.0546875 68.2265625 50.0546875 68.2265625 50.0546875 64.2265625 C51.7046875 63.5665625 53.3546875 62.9065625 55.0546875 62.2265625 C49.58894355 44.41733994 49.58894355 44.41733994 37.0546875 31.2265625 C30.95619386 28.21874567 24.64878866 25.87508779 18.0546875 24.2265625 C18.5496875 25.12375 18.5496875 25.12375 19.0546875 26.0390625 C20.0546875 28.2265625 20.0546875 28.2265625 20.0546875 31.2265625 C18.4046875 31.2265625 16.7546875 31.2265625 15.0546875 31.2265625 C14.9309375 30.69289063 14.8071875 30.15921875 14.6796875 29.609375 C12.01429851 19.98065727 5.69868242 12.18885588 -2.9453125 7.2265625 C-4.93600077 6.84150236 -6.93618089 6.49951175 -8.9453125 6.2265625 C-11.58366971 17.83533423 -12.92269745 29.37625866 -13.9453125 41.2265625 C-15.2653125 41.2265625 -16.5853125 41.2265625 -17.9453125 41.2265625 C-18.4403125 38.2565625 -18.4403125 38.2565625 -18.9453125 35.2265625 C-28.12943501 43.56724519 -35.35640086 53.01532562 -42.47607422 63.14306641 C-43.39085818 64.44030242 -44.32212482 65.72626341 -45.27783203 66.99365234 C-46.84715542 69.13693811 -47.9197738 70.66777566 -48.04296875 73.36328125 C-46.38599592 76.17600738 -44.14707236 77.34037465 -41.3828125 79.0390625 C-27.84949838 87.71136522 -27.84949838 87.71136522 -26.17578125 92.3671875 C-26.09972656 92.98078125 -26.02367187 93.594375 -25.9453125 94.2265625 C-26.9453125 95.2265625 -26.9453125 95.2265625 -30.3828125 95.6015625 C-39.66196274 95.46876607 -48.60771734 88.56415766 -54.9453125 82.2265625 C-56.5953125 85.5265625 -58.2453125 88.8265625 -59.9453125 92.2265625 C-58.2953125 92.8865625 -56.6453125 93.5465625 -54.9453125 94.2265625 C-46.78956101 98.28478833 -38.34538307 102.66649017 -31.9453125 109.2265625 C-31.9453125 109.8865625 -31.9453125 110.5465625 -31.9453125 111.2265625 C-35.63927759 113.07354505 -38.99354223 112.95779558 -42.9453125 112.2265625 C-50.48719507 109.35925692 -57.82324211 105.49439051 -63.9453125 100.2265625 C-64.3578125 101.22558594 -64.7703125 102.22460938 -65.1953125 103.25390625 C-69.73283625 113.60450947 -69.73283625 113.60450947 -73.19140625 115.37890625 C-75.3828125 115.6015625 -75.3828125 115.6015625 -78.9453125 115.2265625 C-69.43618285 86.90932008 -51.69557968 61.25592838 -32.6328125 38.5390625 C-31.93188477 37.69251099 -31.93188477 37.69251099 -31.21679688 36.82885742 C-28.729147 33.92937693 -26.42249806 31.82832061 -23.1640625 29.81640625 C-20.13377325 27.75129875 -19.98923968 27.39107065 -18.96484375 23.5546875 C-18.86844436 22.19697988 -18.80035188 20.83702317 -18.7578125 19.4765625 C-18.18295816 12.0700448 -17.09703176 5.94108877 -12.1953125 0.1640625 C-8.01482447 -1.57780751 -4.16555344 -1.6561839 0 0 Z " fill="#4D5E6F" transform="translate(102.9453125,9.7734375)"/>
<path d="M0 0 C5.69818781 2.82016093 10.49963787 6.77672683 15.46191406 10.71337891 C16.48639648 11.52250732 17.51087891 12.33163574 18.56640625 13.1652832 C38.39971561 29.40906072 38.39971561 29.40906072 40.12988281 40.97119141 C40.49207076 46.68452492 40.21338077 52.28323055 39.65625 57.97509766 C39.41241266 61.41087602 39.77590454 64.35096604 40.46191406 67.71337891 C38.98040648 67.30511377 37.50184881 66.88614562 36.02441406 66.46337891 C35.20070313 66.23134766 34.37699219 65.99931641 33.52832031 65.76025391 C26.18848819 63.25442587 19.52896266 59.71417178 12.83691406 55.83837891 C-2.30833302 47.27055926 -18.74159342 39.93372965 -36.53808594 41.71337891 C-38.5565896 42.32172701 -40.56388863 42.97379156 -42.53808594 43.71337891 C-40.35056344 35.3512606 -37.84580649 27.11671059 -35.16308594 18.90087891 C-34.78925781 17.71300781 -34.41542969 16.52513672 -34.03027344 15.30126953 C-31.56636403 7.77875159 -29.49316908 2.47273924 -22.85058594 -2.16162109 C-14.7254602 -4.92109776 -7.76131735 -3.3103612 0 0 Z " fill="#DAD2C3" transform="translate(47.5380859375,131.28662109375)"/>
<path d="M0 0 C5.69763072 2.13201666 9.37199179 3.79524712 12.27734375 9.3203125 C13.38295242 11.83799681 14.01083473 13.55171568 13.83203125 16.296875 C11.91144643 20.63981906 7.8419355 23.67948251 3.96484375 26.2578125 C0.40234375 26.2578125 0.40234375 26.2578125 -2.03515625 25.2578125 C-2.03515625 26.2478125 -2.03515625 27.2378125 -2.03515625 28.2578125 C-1.37515625 28.5878125 -0.71515625 28.9178125 -0.03515625 29.2578125 C-12.15948084 39.61400642 -31.24278013 47.39341292 -47.21875 46.69140625 C-54.46188663 45.57630477 -59.44679949 42.59054127 -63.78515625 36.6953125 C-67.32151224 31.11554326 -70.20210038 25.21699898 -73.03515625 19.2578125 C-73.59332031 18.19820312 -74.15148437 17.13859375 -74.7265625 16.046875 C-76.03515625 13.2578125 -76.03515625 13.2578125 -75.72265625 10.8828125 C-75.49578125 10.3465625 -75.26890625 9.8103125 -75.03515625 9.2578125 C-74.04515625 9.6909375 -74.04515625 9.6909375 -73.03515625 10.1328125 C-56.10684079 16.4809308 -38.49661229 13.22345815 -22.078125 6.6640625 C-18.26379399 4.90134213 -14.80619576 2.77973022 -11.3515625 0.39453125 C-7.42445267 -1.53260022 -4.15846865 -1.01687136 0 0 Z " fill="#D9D2C2" transform="translate(81.03515625,199.7421875)"/>
<path d="M0 0 C3.36489495 2.53954336 3.72172035 4.32834714 4.81494141 8.28076172 C6.63699373 13.99865629 9.65566849 19.26234087 12.37890625 24.59375 C12.99209938 25.80505374 13.60473378 27.01664049 14.21679688 28.22851562 C15.70288178 31.16558107 17.19452162 34.09967816 18.69140625 37.03125 C15.69140625 38.03125 15.69140625 38.03125 12.69140625 37.03125 C10.99273437 36.88347064 9.28963136 36.78377934 7.5859375 36.71484375 C6.11157227 36.65200195 6.11157227 36.65200195 4.60742188 36.58789062 C3.58326172 36.54857422 2.55910156 36.50925781 1.50390625 36.46875 C-0.04973633 36.40397461 -0.04973633 36.40397461 -1.63476562 36.33789062 C-4.19257565 36.23180634 -6.7504822 36.12974854 -9.30859375 36.03125 C-9.63859375 35.37125 -9.96859375 34.71125 -10.30859375 34.03125 C-10.96859375 34.03125 -11.62859375 34.03125 -12.30859375 34.03125 C-12.63859375 35.02125 -12.96859375 36.01125 -13.30859375 37.03125 C-14.82743965 37.37352513 -16.34881908 37.70456214 -17.87109375 38.03125 C-18.71800781 38.216875 -19.56492188 38.4025 -20.4375 38.59375 C-29.95368392 40.04383517 -36.34523414 36.79989711 -44.30859375 32.03125 C-49.95031773 27.88068876 -53.22605438 22.70572401 -55.30859375 16.03125 C-55.30859375 15.04125 -55.30859375 14.05125 -55.30859375 13.03125 C-16.86297991 -4.93744866 -16.86297991 -4.93744866 0 0 Z " fill="#DAD2C3" transform="translate(200.30859375,181.96875)"/>
<path d="M0 0 C-2.41928894 5.43409515 -6.17152202 9.56369921 -11 13 C-14.39227742 13.87310092 -17.61325016 14.23771326 -21.09765625 14.55078125 C-24.01960184 15.00303393 -25.14909629 15.37490159 -27.1875 17.4375 C-31.38555911 23.37268701 -31.70296895 27.07043025 -30.6875 34.19140625 C-29.72887028 38.70210147 -28.25403282 41.74596718 -25 45 C-20.52190737 47.71747501 -16.09538408 47.64396639 -11 47 C-7.23632227 45.22080689 -5.49373334 43.70768445 -3.125 40.3125 C-1.32295751 35.006486 -1.51977165 30.12100856 -2.75 24.6875 C-3 22 -3 22 -1.375 19.8125 C4.93103448 15 4.93103448 15 8 15 C8.495 13.515 8.495 13.515 9 12 C9.99 12.33 10.98 12.66 12 13 C15.99157307 21.13098218 16.16652378 30.05332633 13.5 38.5625 C9.8669238 47.54356598 4.02372936 53.12287571 -4.703125 57.125 C-13.23495188 60.37521976 -21.72129106 59.69185669 -30 56 C-38.22994418 51.55583014 -43.51479667 44.76781171 -46.33984375 35.92578125 C-48.33297424 27.09232126 -47.63290701 18.85089917 -43 11 C-31.92857382 -4.68834871 -17.15648193 -7.5650629 0 0 Z " fill="#DCD5C7" transform="translate(224,108)"/>
<path d="M0 0 C3.41802701 0.51447811 6.60033294 1.47966281 9.875 2.5625 C14.08919449 3.82363672 17.57186995 4.58484736 22 4 C23.14641216 3.2831568 24.27102315 2.53061521 25.375 1.75 C27.74824393 0.22357265 28.58483654 -0.07750616 31.40625 0.44921875 C33.85647132 1.43008266 35.8855592 2.41982903 38 4 C39.0625 6.75 39.0625 6.75 39 9 C26.73627063 19.7383899 -0.47918226 18.90532227 -15.875 20.125 C-16.82810059 20.20057129 -17.78120117 20.27614258 -18.76318359 20.35400391 C-37.98243947 21.74953421 -57.23537467 22.20495511 -76.5 22.1875 C-78.06309906 22.18759064 -78.06309906 22.18759064 -79.65777588 22.18768311 C-94.41522996 22.17564626 -109.13618996 21.87250917 -123.875 21.125 C-124.66592041 21.08579437 -125.45684082 21.04658875 -126.27172852 21.00619507 C-137.89552795 20.41227497 -149.43607724 19.30770044 -161 18 C-161 17.67 -161 17.34 -161 17 C-159.71029297 16.85304687 -159.71029297 16.85304687 -158.39453125 16.703125 C-149.13369793 15.53163463 -140.00532591 13.85699386 -131.50390625 9.8125 C-126.44406364 8.17061659 -121.81321255 10.34963482 -117 12.0625 C-102.70243266 16.48292569 -90.0509092 13.05806479 -76.23828125 8.85546875 C-70.90058224 7.44538903 -66.58433874 8.75064277 -61.5 10.5 C-45.57603226 15.96802912 -26.30740777 13.46821171 -11 7 C-5.14170883 4.02008481 -5.14170883 4.02008481 0 0 Z " fill="#000000" transform="translate(195,233)"/>
<path d="M0 0 C1.87890625 0.34375 1.87890625 0.34375 3.94140625 1.90625 C4.9522726 4.53450251 5.31679825 6.56701302 4.7734375 9.35546875 C2.4374172 14.54775841 -2.69969722 18.24098431 -6.91333008 21.90014648 C-11.9576842 26.2818658 -16.87980938 30.7615606 -21.68359375 35.40625 C-22.41900391 36.08751953 -23.15441406 36.76878906 -23.91210938 37.47070312 C-25.84603137 39.35397048 -27.58554337 41.12327787 -29.12109375 43.34375 C-29.2764956 46.54528648 -29.2764956 46.54528648 -28.12109375 49.34375 C-27.62408493 55.07846715 -27.79959672 59.41877164 -31.12109375 64.34375 C-36.0458269 68.78802138 -39.07504058 69.70547836 -45.58203125 69.62109375 C-50.71745215 69.06014777 -53.31563285 66.34513382 -56.43359375 62.46875 C-58.21365711 59.17233638 -58.8295917 57.06040118 -59.12109375 53.34375 C-59.19585937 52.63992187 -59.270625 51.93609375 -59.34765625 51.2109375 C-59.68160677 46.02591633 -58.94284632 42.81136034 -55.59375 38.78125 C-53.23309275 36.47694796 -51.25642272 35.40857871 -48.12109375 34.34375 C-47.42226074 34.35784912 -46.72342773 34.37194824 -46.00341797 34.38647461 C-39.96280865 34.50555914 -36.96187831 32.84036701 -32.578125 28.71484375 C-30.65548139 26.77379334 -28.79262388 24.78301166 -26.93359375 22.78125 C-25.98060598 21.79160261 -25.02553774 20.80395423 -24.06835938 19.81835938 C-19.42107444 15.00306764 -14.91644429 10.06910666 -10.56518555 4.98461914 C-7.00969091 0.94463953 -5.4511099 -0.24093303 0 0 Z " fill="#4E5F6F" transform="translate(251.12109375,86.65625)"/>
<path d="M0 0 C7.27898 -0.54846646 12.37259617 2.66788387 18.50024414 6.26904297 C19.50893555 6.84138672 20.51762695 7.41373047 21.55688477 8.00341797 C24.02748429 9.40849827 26.48663175 10.83032577 28.93774414 12.26904297 C28.93774414 13.25904297 28.93774414 14.24904297 28.93774414 15.26904297 C9.0780254 25.44993811 9.0780254 25.44993811 0.93774414 25.26904297 C0.24680664 25.59001953 -0.44413086 25.91099609 -1.15600586 26.24169922 C-5.2467448 27.68775344 -9.06681364 27.637338 -13.37475586 27.64404297 C-14.19137695 27.66853516 -15.00799805 27.69302734 -15.84936523 27.71826172 C-21.75652281 27.74650311 -26.10816093 26.53258033 -31.06225586 23.26904297 C-33.6214031 20.70989573 -33.63160471 19.06462648 -34.18725586 15.51904297 C-34.35483398 14.49294922 -34.52241211 13.46685547 -34.69506836 12.40966797 C-35.05515064 9.32981525 -35.12717399 6.36656499 -35.06225586 3.26904297 C-34.02069336 3.22005859 -32.97913086 3.17107422 -31.90600586 3.12060547 C-23.14471486 2.67450493 -14.52773494 1.92111296 -5.84350586 0.67138672 C-3.89386217 0.46393496 -1.94417451 0.25363801 0 0 Z " fill="#D9D2C3" transform="translate(39.062255859375,182.73095703125)"/>
<path d="M0 0 C1.80315297 0.03610776 3.6058333 0.10589817 5.40673828 0.20288086 C6.36347443 0.23119492 7.32021057 0.25950897 8.30593872 0.28868103 C11.36473658 0.38655222 14.41995288 0.5270606 17.47705078 0.66772461 C19.5277419 0.73748372 21.57852576 0.80457155 23.62939453 0.86889648 C39.56545518 1.41593446 39.56545518 1.41593446 45.60205078 2.60522461 C45.33392578 3.10022461 45.06580078 3.59522461 44.78955078 4.10522461 C42.26890306 9.41185138 40.51997758 14.02721107 40.01220703 19.87866211 C39.93236572 20.76730957 39.85252441 21.65595703 39.77026367 22.5715332 C39.71475342 23.24265137 39.65924316 23.91376953 39.60205078 24.60522461 C35.31930445 24.4847639 31.03669059 24.3604429 26.75415039 24.23291016 C25.30463518 24.19024446 23.85509128 24.14854001 22.40551758 24.10791016 C12.44990308 23.82800569 2.53515326 23.3411103 -7.39794922 22.60522461 C-8.48930381 19.33116083 -8.63493445 16.73858288 -8.71044922 13.29272461 C-8.74783203 12.1828418 -8.78521484 11.07295898 -8.82373047 9.92944336 C-8.08077259 4.12891899 -6.13063897 0.2938406 0 0 Z " fill="#F4EFE5" transform="translate(97.39794921875,163.394775390625)"/>
<path d="M0 0 C1.58167678 3.16335356 0.70117771 5.7799601 -0.01171875 9.16015625 C-1.50206132 13.44268214 -4.1281107 16.57898169 -6.8984375 20.125 C-11.31928227 26.17284712 -14.25120479 33.06477952 -17 40 C-18.03705078 39.96970703 -19.07410156 39.93941406 -20.14257812 39.90820312 C-24.07138728 39.79406165 -28.00027885 39.68299466 -31.92919922 39.57275391 C-33.61444369 39.52506133 -35.29966625 39.4765867 -36.98486328 39.42724609 C-45.64513464 39.17420298 -54.30455323 38.95088754 -62.96875 38.90625 C-64.86270508 38.89561523 -64.86270508 38.89561523 -66.79492188 38.88476562 C-69.41458486 38.97895217 -71.51933638 39.21450827 -74 40 C-74.34289062 39.58492187 -74.68578125 39.16984375 -75.0390625 38.7421875 C-86.76376595 24.93822629 -99.30360996 12.53329529 -116 5 C-111.973058 3.657686 -109.41697912 4.98195246 -105.625 6.4375 C-104.91182617 6.70973389 -104.19865234 6.98196777 -103.46386719 7.26245117 C-92.85179007 11.47913139 -83.79032593 17.92194194 -74.8515625 24.921875 C-67.89426926 29.99212158 -63.81027478 31.63722266 -55.25 31.375 C-53.91666626 31.35131348 -53.91666626 31.35131348 -52.55639648 31.32714844 C-42.40276024 31.06344174 -33.50360425 29.01148861 -23.84765625 25.90234375 C-21 25 -21 25 -18.74609375 24.69140625 C-16.7394852 24.12665629 -16.7394852 24.12665629 -15.91015625 21.69921875 C-15.45962891 20.36310547 -15.45962891 20.36310547 -15 19 C-10.9665165 11.87197506 -5.58223875 5.94198303 0 0 Z " fill="#5F6E7D" transform="translate(161,122)"/>
<path d="M0 0 C-0.33 0.99 -0.66 1.98 -1 3 C-4.78597774 2.48373031 -7.61339441 1.69330279 -11 0 C-21.15896075 -2.4777953 -31.37201442 -1.49312753 -40.6015625 3.37109375 C-49.02636563 8.67795614 -54.38208006 16.4009602 -57 26 C-58.19645546 38.24424548 -55.82231052 48.43327751 -48 58 C-42.2069463 64.10582421 -34.87238964 68.46051842 -26.40625 69.23828125 C-16.14358362 69.50036547 -6.78910299 67.3504428 1.25390625 60.6953125 C7.92433573 54.21887762 12.47890144 46.12571985 13.16796875 36.703125 C13.2233492 29.74734019 12.609054 23.98824314 9.25 17.75 C8 15 8 15 8.8125 12.625 C9.4003125 11.820625 9.4003125 11.820625 10 11 C15.46365712 15.97009146 17.49109694 21.89315229 18.390625 29.15234375 C18.81044248 41.52196605 15.27433422 52.71181455 7 62 C-2.50340884 71.18545092 -13.4503299 74.39806687 -26.39453125 74.27734375 C-36.6131071 73.49129945 -45.96435885 67.55596167 -52.8125 60.125 C-60.90451854 50.27221816 -62.95201223 39.54238334 -62 27 C-60.26110932 16.74200624 -54.24373848 7.33784664 -46 1 C-30.14380438 -8.23034778 -16.06976231 -8.43662521 0 0 Z " fill="#F4EFE4" transform="translate(230,102)"/>
<path d="M0 0 C-0.33 0.99 -0.66 1.98 -1 3 C-7.75 2.125 -7.75 2.125 -10 1 C-19.15456528 -0.17786752 -26.50008681 1.56367239 -34 7 C-40.37027762 14.03693458 -42.53116581 21.27986358 -42.3828125 30.63671875 C-41.64931041 37.08105855 -38.72932169 41.7765864 -34.8125 46.8125 C-27.97305515 52.13206822 -21.73900796 54.90495161 -12.95703125 54.4765625 C-5.09439592 53.20940066 0.68837883 49.27955355 5.59375 43.1015625 C11.62350018 34.09043585 10.45404585 25.29860713 8.4375 15.08984375 C8.293125 14.40019531 8.14875 13.71054688 8 13 C9.32 13 10.64 13 12 13 C15.58084443 23.01783858 16.44079705 31.29276744 12.3828125 41.32421875 C8.05042348 49.70751389 1.72882679 54.67473265 -7 58 C-14.82219904 60.37868041 -22.63603378 59.28393088 -30 56 C-38.22994418 51.55583014 -43.51479667 44.76781171 -46.33984375 35.92578125 C-48.33297424 27.09232126 -47.63290701 18.85089917 -43 11 C-31.92857382 -4.68834871 -17.15648193 -7.5650629 0 0 Z " fill="#F4EFE5" transform="translate(224,108)"/>
<path d="M0 0 C5.34740414 1.95385921 8.45618143 4.91236287 11 10 C11.57425085 14.70697417 11.45554552 18.12144792 9.25 22.375 C5.28577024 26.99993472 2.34739004 28.80759098 -3.8125 29.3125 C-8.21597578 29.23978205 -10.63091573 27.90966369 -14 25 C-17.67213845 20.84468544 -18.65535778 17.58126268 -18.3828125 12.17578125 C-17.53587849 7.3620849 -14.82940839 4.71630724 -11.25 1.625 C-7.24603395 -0.37698302 -4.38614557 -0.71932787 0 0 Z " fill="#516272" transform="translate(139,51)"/>
<path d="M0 0 C0.36660584 4.47543977 0.36660584 4.47543977 -1.23934937 6.77333069 C-1.81955841 7.31227463 -2.39976746 7.85121857 -2.99755859 8.40649414 C-3.97890274 9.33885643 -3.97890274 9.33885643 -4.98007202 10.29005432 C-6.05341293 11.27762978 -6.05341293 11.27762978 -7.1484375 12.28515625 C-8.64392795 13.71736966 -10.13869667 15.15033699 -11.6328125 16.58398438 C-13.99571847 18.8232613 -16.36565869 21.05381647 -18.75 23.27026367 C-29.44979445 32.39672695 -29.44979445 32.39672695 -34.7890625 44.80859375 C-34.7782666 45.72310303 -34.7674707 46.6376123 -34.75634766 47.57983398 C-35.08974566 50.89143156 -36.48609749 51.9310437 -39 54 C-42.14911479 55.57455739 -44.52008816 55.34799118 -48 55 C-51.58014577 52.94473113 -53.36748152 51.74665002 -54.76953125 47.875 C-55.36459677 44.58267488 -55.60197176 42.1310485 -54 39.12109375 C-52.23636792 36.94279817 -50.51777432 35.25888716 -48 34 C-46.45975065 34.11375925 -44.92077667 34.24514007 -43.3828125 34.38647461 C-39.13691391 34.41651545 -37.05975472 33.79803366 -33.8671875 30.98657227 C-32.51061241 29.62172869 -31.18081073 28.22989566 -29.875 26.81640625 C-29.16142334 26.08630844 -28.44784668 25.35621063 -27.71264648 24.60398865 C-25.45031944 22.27935201 -23.22513714 19.92270552 -21 17.5625 C-18.73877996 15.21412527 -16.47058794 12.87264827 -14.20166016 10.53172302 C-12.79536483 9.07536193 -11.39509518 7.61315372 -10.00146484 6.14466858 C-9.37320801 5.4840593 -8.74495117 4.82345001 -8.09765625 4.14282227 C-7.54601807 3.55880142 -6.99437988 2.97478058 -6.42602539 2.37306213 C-4.17911156 0.20959975 -3.17977919 0 0 0 Z " fill="#818D9B" transform="translate(251,91)"/>
<path d="M0 0 C3.55900657 1.28333151 5.64072998 3.52231189 8.1875 6.25 C12.40269343 10.58422713 16.83469556 13.88616399 22 17 C15.70500432 23.29499568 4.10977943 23.39195719 -4.3125 23.4375 C-5.13540527 23.4473291 -5.95831055 23.4571582 -6.80615234 23.46728516 C-12.65906505 23.38620686 -17.56473868 22.13938536 -23 20 C-23 19.34 -23 18.68 -23 18 C-21.42283761 16.74966403 -19.78498678 15.57557958 -18.125 14.4375 C-13.07276945 10.86891283 -8.51590298 7.0012343 -3.99609375 2.78515625 C-2 1 -2 1 0 0 Z " fill="#DAD3C4" transform="translate(97,220)"/>
<path d="M0 0 C0.99 0.66 1.98 1.32 3 2 C1.125 5.875 1.125 5.875 0 7 C-2.0807859 7.27038461 -4.16478299 7.51623128 -6.25 7.75 C-11.75156338 8.43230544 -11.75156338 8.43230544 -16.1875 11.4375 C-20.37467213 17.35729509 -20.76262398 21.11577901 -19.65234375 28.2265625 C-18.77627695 32.15782023 -17.59027535 34.93876549 -15 38 C-15 38.66 -15 39.32 -15 40 C-20.10456094 38.10942187 -23.05066175 33.98908968 -25.3125 29.25 C-26.7782655 22.32092672 -26.92466121 16.09154642 -23.33203125 9.8203125 C-17.53182188 1.89392667 -9.72228397 -1.25926726 0 0 Z " fill="#F2ECE2" transform="translate(213,114)"/>
<path d="M0 0 C2.44298584 1.81542984 3.36875912 3.31634566 5 6 C5 7.32 5 8.64 5 10 C3.865625 9.979375 2.73125 9.95875 1.5625 9.9375 C-1.81575674 9.58422523 -1.81575674 9.58422523 -3 11 C-3.04346799 12.99952758 -3.039992 15.00039988 -3 17 C-3 17.99 -3 18.98 -3 20 C-7.00863462 20.47721841 -8.78014111 20.12859671 -12.3125 18.0625 C-15.39272697 15.19414049 -16.09177007 12.35444468 -16.3125 8.22265625 C-15.76471499 4.32653534 -13.83898983 2.64092077 -11 0 C-7.4689088 -1.7655456 -3.71388681 -1.05013351 0 0 Z " fill="#F9F9FA" transform="translate(141,56)"/>
<path d="M0 0 C0.639375 0.4125 1.27875 0.825 1.9375 1.25 C-7.07833091 8.5515532 -22.49040512 13.96085726 -34.0625 13.25 C-36.4375 12.25 -36.4375 12.25 -38.0625 11.25 C-38.0625 12.24 -38.0625 13.23 -38.0625 14.25 C-47.10332602 14.86293736 -56.95577913 13.25543725 -64.0625 7.25 C-63.7325 5.93 -63.4025 4.61 -63.0625 3.25 C-60.30203349 4.3374565 -57.64644816 5.45908457 -54.9921875 6.79296875 C-50.46217052 8.72407736 -46.12135626 8.78419127 -41.25 8.75 C-40.33508789 8.74645508 -39.42017578 8.74291016 -38.47753906 8.73925781 C-26.47830662 8.45306803 -15.47696208 5.12444386 -4.765625 -0.16796875 C-3.0625 -0.75 -3.0625 -0.75 0 0 Z " fill="#F2EDE2" transform="translate(69.0625,205.75)"/>
<path d="M0 0 C1.58167678 3.16335356 0.70117771 5.7799601 -0.01171875 9.16015625 C-1.50206132 13.44268214 -4.1281107 16.57898169 -6.8984375 20.125 C-11.308018 26.15743727 -14.29964384 33.05983229 -17 40 C-18.65 40 -20.3 40 -22 40 C-23.42392632 27.65930526 -14.46359342 16.98349342 -7.3359375 7.61425781 C-5.07421825 4.88134705 -2.55493356 2.45838084 0 0 Z " fill="#4E5E6E" transform="translate(161,122)"/>
<path d="M0 0 C3.86977062 1.93488531 5.54889545 6.07685568 7 10 C7.46730343 16.31300483 6.35931215 22.62510056 3 28 C-0.17261961 30.09753761 -3.17034339 31 -7 31 C-8.33126553 25.0824093 -7.54251397 21.5752528 -5.1875 16.0625 C-2.99726372 10.74924446 -1.28507777 5.61046148 0 0 Z " fill="#D9D2C3" transform="translate(163,154)"/>
<path d="M0 0 C3.80603418 4.07789377 4.12068161 7.77661011 4.0625 13.1875 C4.05347656 14.27417969 4.04445312 15.36085938 4.03515625 16.48046875 C4.02355469 17.31191406 4.01195312 18.14335938 4 19 C-0.44277548 17.63299216 -4.58540923 15.86820698 -8.80859375 13.953125 C-11.48649816 12.78840365 -14.21007585 11.8584382 -17 11 C-15.56394807 7.61181498 -13.79533421 5.6813402 -11 3.3125 C-10.29875 2.71050781 -9.5975 2.10851562 -8.875 1.48828125 C-5.58378814 -1.12411816 -4.01360586 -1.27260674 0 0 Z " fill="#838F9C" transform="translate(141,19)"/>
<path d="M0 0 C11.28123601 7.84694823 11.28123601 7.84694823 15.625 12.3125 C15.625 13.6325 15.625 14.9525 15.625 16.3125 C11.80473233 16.3125 11.31374876 15.35472536 8.625 12.75 C0.54558029 5.36347551 -7.93546824 0.56349538 -18.375 -2.6875 C-18.375 -3.6775 -18.375 -4.6675 -18.375 -5.6875 C-19.695 -5.6875 -21.015 -5.6875 -22.375 -5.6875 C-22.375 -4.6975 -22.375 -3.7075 -22.375 -2.6875 C-24.32809888 -1.28636384 -26.33208818 0.04589467 -28.375 1.3125 C-29.035 1.9725 -29.695 2.6325 -30.375 3.3125 C-31.365 3.3125 -32.355 3.3125 -33.375 3.3125 C-32.76875 -2.14375 -32.76875 -2.14375 -31.0625 -4.5 C-21.45620519 -11.25998524 -8.57678743 -5.44967555 0 0 Z " fill="#F3EEE3" transform="translate(51.375,136.6875)"/>
<path d="M0 0 C2.38370909 2.38370909 2.29588602 2.9936599 2.3125 6.25 C2.20270098 10.52529926 1.43257776 13.39307435 -1 17 C-5.92473315 21.44427138 -8.95394683 22.36172836 -15.4609375 22.27734375 C-20.66930265 21.70843002 -23.26028107 18.9104233 -26.4375 15 C-28 12 -28 12 -27.75 9.625 C-27.5025 9.08875 -27.255 8.5525 -27 8 C-26.2575 8.78375 -25.515 9.5675 -24.75 10.375 C-21.18196484 13.78085175 -19.53618598 14.85776056 -14.625 15.3125 C-9.88649337 14.90400805 -6.69020581 13.62984132 -3.25 10.3125 C-1.45300194 6.98805359 -0.79979246 3.69134981 0 0 Z " fill="#A69A7F" transform="translate(221,134)"/>
<path d="M0 0 C4.01836735 6.21020408 4.01836735 6.21020408 3.9375 9.6875 C2.9359577 12.15797101 1.72457422 13.97549983 0 16 C-4.22480975 15.75148178 -6.49978306 15.39147413 -9.875 12.75 C-12.04851267 9.9372189 -13.09105603 8.55118511 -13 5 C-9.0116851 0.0489884 -6.1784862 -0.11441641 0 0 Z " fill="#A6B3C1" transform="translate(155,81)"/>
<path d="M0 0 C2.5106153 2.3246438 4.42905486 4.62969664 6.25 7.5 C8.67256293 11.0134686 11.256199 12.50898829 15.1328125 14.17578125 C17 15 17 15 20 17 C9.91002699 16.52517774 -1.48721988 14.67518675 -10 9 C-10.0625 6.75 -10.0625 6.75 -9 4 C-6.13325156 2.30699573 -3.12586629 1.13036377 0 0 Z " fill="#010101" transform="translate(10,233)"/>
<path d="M0 0 C0 0.99 0 1.98 0 3 C-1.89545392 3.48066535 -3.79138039 3.95946743 -5.6875 4.4375 C-7.27111328 4.83775391 -7.27111328 4.83775391 -8.88671875 5.24609375 C-13.61250038 6.39048002 -17.85960895 7.12374541 -22.73828125 7.09765625 C-23.80498047 7.09443359 -24.87167969 7.09121094 -25.97070312 7.08789062 C-27.62489258 7.07532227 -27.62489258 7.07532227 -29.3125 7.0625 C-30.43462891 7.05798828 -31.55675781 7.05347656 -32.71289062 7.04882812 C-35.4753151 7.03707313 -38.23762998 7.02064077 -41 7 C-41.33 5.68 -41.66 4.36 -42 3 C-37.72953289 2.80343638 -33.45861919 2.61929751 -29.1875 2.4375 C-27.97255859 2.38142578 -26.75761719 2.32535156 -25.50585938 2.26757812 C-24.34248047 2.21923828 -23.17910156 2.17089844 -21.98046875 2.12109375 C-20.90692139 2.0739624 -19.83337402 2.02683105 -18.72729492 1.97827148 C-16 2 -16 2 -13 3 C-12.67 2.34 -12.34 1.68 -12 1 C-7.62090851 -0.60005266 -4.50983435 -1.36661647 0 0 Z " fill="#F3EEE4" transform="translate(47,184)"/>
<path d="M0 0 C2.92861999 0.33617713 3.88585731 0.87238706 5.88671875 3.109375 C6.48097656 3.98078125 7.07523438 4.8521875 7.6875 5.75 C8.28949219 6.61109375 8.89148438 7.4721875 9.51171875 8.359375 C10.98934514 10.98109531 11.60037569 13.03745176 12 16 C10.02270019 16.52787642 8.04309608 17.04712903 6.0625 17.5625 C4.40927734 17.99755859 4.40927734 17.99755859 2.72265625 18.44140625 C1.82417969 18.62574219 0.92570312 18.81007813 0 19 C-1.81187842 17.18812158 -1.13234462 14.7302249 -1.13671875 12.32226562 C-1.13285156 11.57654297 -1.12898438 10.83082031 -1.125 10.0625 C-1.12886719 9.32064453 -1.13273437 8.57878906 -1.13671875 7.81445312 C-1.12663501 2.25327002 -1.12663501 2.25327002 0 0 Z " fill="#A8B5C2" transform="translate(98,27)"/>
<path d="M0 0 C0.66 0.66 1.32 1.32 2 2 C-8.76172061 3.75445809 -19.11109903 4.23990235 -30 4 C-22.09300685 -4.47177838 -10.53328263 -3.39918683 0 0 Z " fill="#4F5F6E" transform="translate(33,178)"/>
<path d="M0 0 C0.33 1.32 0.66 2.64 1 4 C0.47567383 4.23187012 -0.04865234 4.46374023 -0.58886719 4.70263672 C-2.97634907 5.75910537 -5.36317945 6.81703813 -7.75 7.875 C-8.575 8.23980469 -9.4 8.60460937 -10.25 8.98046875 C-11.04921875 9.33496094 -11.8484375 9.68945312 -12.671875 10.0546875 C-13.77160645 10.54171143 -13.77160645 10.54171143 -14.89355469 11.03857422 C-16.31233444 11.68613503 -17.70983766 12.38220748 -19.08300781 13.12158203 C-21 14 -21 14 -24 14 C-24 12.35 -24 10.7 -24 9 C-20.56631406 7.49115787 -17.12746451 5.99446599 -13.6875 4.5 C-12.71103516 4.07074219 -11.73457031 3.64148438 -10.72851562 3.19921875 C-9.79072266 2.79316406 -8.85292969 2.38710937 -7.88671875 1.96875 C-7.02264404 1.59169922 -6.15856934 1.21464844 -5.26831055 0.82617188 C-3 0 -3 0 0 0 Z " fill="#F0EBE0" transform="translate(171,185)"/>
<path d="M0 0 C0.7425 -0.020625 1.485 -0.04125 2.25 -0.0625 C7.13658146 -0.09703414 10.33460109 0.66214034 14.625 3.25 C14.295 4.24 13.965 5.23 13.625 6.25 C12.33529297 6.00830078 12.33529297 6.00830078 11.01953125 5.76171875 C2.35906054 4.45617023 -5.94927208 4.96505684 -14.375 7.25 C-13.625 4.3125 -13.625 4.3125 -12.375 1.25 C-8.41471265 -0.21521145 -4.1733603 0.02868289 0 0 Z " fill="#F1ECE1" transform="translate(188.375,180.75)"/>
<path d="M0 0 C0.66 0 1.32 0 2 0 C3.96211791 5.88635373 4.016986 12.60235577 1.4375 18.3125 C-0.90644585 22.41652071 -4.2403567 25.21194991 -8 28 C-8.66 27.67 -9.32 27.34 -10 27 C-9.236875 26.175 -8.47375 25.35 -7.6875 24.5 C-2.50628443 18.18539352 -1.65295945 12.36346442 -2.08984375 4.3203125 C-2 2 -2 2 0 0 Z " fill="#F2EDE2" transform="translate(226,127)"/>
<path d="M0 0 C-2.33214148 1.20628008 -4.49642139 2.1654738 -7 3 C-7 4.65 -7 6.3 -7 8 C-7.67933594 7.77828125 -8.35867187 7.5565625 -9.05859375 7.328125 C-12.93204487 6.89602687 -15.61210277 8.19709978 -19.0625 9.75 C-29.52401158 14.12435393 -38.66698536 16.24504811 -50.0625 16.3125 C-51.45686279 16.32095947 -51.45686279 16.32095947 -52.87939453 16.32958984 C-59.61521631 16.25652246 -59.61521631 16.25652246 -63 14 C-61.07800781 14.05220703 -61.07800781 14.05220703 -59.1171875 14.10546875 C-40.35919187 14.46385544 -24.25632761 11.42206214 -8.16796875 1.16015625 C-5.35521027 -0.34504964 -3.13172213 -0.49448244 0 0 Z " fill="#D7CFC0" transform="translate(78,199)"/>
<path d="M0 0 C4.2248765 2.65282943 7.45688688 5.45688688 11 9 C13.16620544 10.29519995 13.16620544 10.29519995 15 11 C15 12.32 15 13.64 15 15 C10.37234366 14.51898913 8.21475831 12.7809184 4.875 9.625 C4.02679688 8.83351562 3.17859375 8.04203125 2.3046875 7.2265625 C0.51836153 5.50078995 -1.25521918 3.76758841 -3 2 C-2.01 1.34 -1.02 0.68 0 0 Z " fill="#F3EEE3" transform="translate(71,154)"/>
<path d="M0 0 C-1 3 -1 3 -2.90185547 4.25854492 C-3.71541504 4.66177979 -4.52897461 5.06501465 -5.3671875 5.48046875 C-6.25277344 5.92197266 -7.13835937 6.36347656 -8.05078125 6.81835938 C-9.44876953 7.49608398 -9.44876953 7.49608398 -10.875 8.1875 C-11.79925781 8.65091797 -12.72351563 9.11433594 -13.67578125 9.59179688 C-20.5925764 13 -20.5925764 13 -24 13 C-24 12.01 -24 11.02 -24 10 C-20.75661202 8.32022882 -17.50429633 6.65852568 -14.25 5 C-12.86941406 4.28457031 -12.86941406 4.28457031 -11.4609375 3.5546875 C-10.57148437 3.10351562 -9.68203125 2.65234375 -8.765625 2.1875 C-7.94868164 1.76855469 -7.13173828 1.34960938 -6.29003906 0.91796875 C-4 0 -4 0 0 0 Z " fill="#516272" transform="translate(134,91)"/>
<path d="M0 0 C-0.33 0.99 -0.66 1.98 -1 3 C-2.87011719 3.79956055 -2.87011719 3.79956055 -5.296875 4.38671875 C-6.1734375 4.60263672 -7.05 4.81855469 -7.953125 5.04101562 C-8.87609375 5.25435547 -9.7990625 5.46769531 -10.75 5.6875 C-11.6575 5.91244141 -12.565 6.13738281 -13.5 6.36914062 C-17.77906017 7.39824208 -21.57838087 8.12424141 -26 8 C-25.67 7.01 -25.34 6.02 -25 5 C-23.0222168 4.20043945 -23.0222168 4.20043945 -20.44921875 3.61328125 C-19.52302734 3.39736328 -18.59683594 3.18144531 -17.64257812 2.95898438 C-16.66740234 2.74564453 -15.69222656 2.53230469 -14.6875 2.3125 C-13.24213867 1.97508789 -13.24213867 1.97508789 -11.76757812 1.63085938 C-7.69966581 0.70338664 -4.19666112 0 0 0 Z " fill="#4E5F70" transform="translate(133,85)"/>
<path d="M0 0 C0.99 0 1.98 0 3 0 C3 4.29 3 8.58 3 13 C0.69 12.01 -1.62 11.02 -4 10 C-3.5289356 5.85463326 -3.0080208 3.0080208 0 0 Z " fill="#A7B4C3" transform="translate(139,24)"/>
<path d="M0 0 C0.66 0.66 1.32 1.32 2 2 C0.1854207 3.8145793 -2.79497276 3.47477273 -5.25 3.75 C-9.62586181 4.38675013 -11.58826415 4.67884604 -15.125 7.4375 C-15.74375 8.283125 -16.3625 9.12875 -17 10 C-18 11 -19 12 -20 13 C-19.50971384 8.75573178 -18.44544451 6.98207963 -15.1875 4.25 C-14.15689453 3.36054687 -14.15689453 3.36054687 -13.10546875 2.453125 C-8.98961668 -0.38750018 -4.91525637 -0.2730698 0 0 Z " fill="#D8D2C4" transform="translate(212,118)"/>
<path d="M0 0 C4.55555556 0.55555556 4.55555556 0.55555556 6 2 C6.125 4.5 6.125 4.5 6 7 C5 8 5 8 1.9375 8.0625 C0.968125 8.041875 -0.00125 8.02125 -1 8 C-1.625 5.125 -1.625 5.125 -2 2 C-1.34 1.34 -0.68 0.68 0 0 Z " fill="#506172" transform="translate(205,131)"/>
<path d="M0 0 C0.99 0.495 0.99 0.495 2 1 C2 1.66 2 2.32 2 3 C6.47883696 2.55296014 6.47883696 2.55296014 10 0 C9.125 4.875 9.125 4.875 8 6 C5.0625 6.1875 5.0625 6.1875 2 6 C1.34 5.34 0.68 4.68 0 4 C0 2.68 0 1.36 0 0 Z " fill="#A0ADBB" transform="translate(202,136)"/>
<path d="M0 0 C0 0.99 0 1.98 0 3 C-4.22222222 6 -4.22222222 6 -7 6 C-7.33 4.68 -7.66 3.36 -8 2 C-4.77208445 -0.1519437 -3.71599191 -0.20086443 0 0 Z " fill="#F3EEE3" transform="translate(79,200)"/>
<path d="M0 0 C-2.33214148 1.20628008 -4.49642139 2.1654738 -7 3 C-7 4.65 -7 6.3 -7 8 C-7.99 7.67 -8.98 7.34 -10 7 C-10.6875 4.9375 -10.6875 4.9375 -11 3 C-7.16674383 0.29417212 -4.67461851 -0.32613618 0 0 Z " fill="#CDC5B5" transform="translate(78,199)"/>
<path d="M0 0 C-2 2 -2 2 -4.625 2.125 C-5.40875 2.08375 -6.1925 2.0425 -7 2 C-7.33 2.99 -7.66 3.98 -8 5 C-8.99 4.67 -9.98 4.34 -11 4 C-11 3.34 -11 2.68 -11 2 C-11.99 1.67 -12.98 1.34 -14 1 C-4.58997722 -0.14806378 -4.58997722 -0.14806378 0 0 Z " fill="#C3BAAA" transform="translate(42,183)"/>
<path d="M0 0 C1.65 0 3.3 0 5 0 C5 1.32 5 2.64 5 4 C3.02 4 1.04 4 -1 4 C-0.67 2.68 -0.34 1.36 0 0 Z " fill="#9EACBA" transform="translate(161,74)"/>
<path d="M0 0 C4.6875 3.61328125 4.6875 3.61328125 6 5 C6 5.99 6 6.98 6 8 C4.68 8 3.36 8 2 8 C0.74335022 5.09399739 0 3.20395416 0 0 Z " fill="#EBEDEF" transform="translate(159,54)"/>
<path d="M0 0 C0.99 0.33 1.98 0.66 3 1 C4.1875 4.0625 4.1875 4.0625 5 7 C4.01 7.33 3.02 7.66 2 8 C0.23537317 4.91190305 0 3.76687864 0 0 Z " fill="#506171" transform="translate(134,41)"/>
<path d="M0 0 C1.98 0.495 1.98 0.495 4 1 C3.67 2.32 3.34 3.64 3 5 C1.68 4.67 0.36 4.34 -1 4 C-0.67 2.68 -0.34 1.36 0 0 Z " fill="#B5AB99" transform="translate(96,195)"/>
<path d="M0 0 C1.98 0.495 1.98 0.495 4 1 C3.67 2.32 3.34 3.64 3 5 C1.68 4.67 0.36 4.34 -1 4 C-0.67 2.68 -0.34 1.36 0 0 Z " fill="#B5AB99" transform="translate(115,193)"/>
<path d="M0 0 C1.98 0.495 1.98 0.495 4 1 C3.67 2.32 3.34 3.64 3 5 C1.68 4.67 0.36 4.34 -1 4 C-0.67 2.68 -0.34 1.36 0 0 Z " fill="#B6AC9A" transform="translate(125,192)"/>
<path d="M0 0 C1.98 0.495 1.98 0.495 4 1 C3.67 2.32 3.34 3.64 3 5 C1.68 4.67 0.36 4.34 -1 4 C-0.67 2.68 -0.34 1.36 0 0 Z " fill="#B8AF9D" transform="translate(21,155)"/>
<path d="M0 0 C1.98 0.495 1.98 0.495 4 1 C3.67 2.32 3.34 3.64 3 5 C1.68 4.67 0.36 4.34 -1 4 C-0.67 2.68 -0.34 1.36 0 0 Z " fill="#B8AE9C" transform="translate(24,147)"/>
<path d="M0 0 C1.98 0.495 1.98 0.495 4 1 C3.34 2.32 2.68 3.64 2 5 C1.01 4.67 0.02 4.34 -1 4 C-0.67 2.68 -0.34 1.36 0 0 Z " fill="#B5AB99" transform="translate(27,139)"/>
<path d="M0 0 C1.32 0 2.64 0 4 0 C3.67 1.65 3.34 3.3 3 5 C2.01 4.67 1.02 4.34 0 4 C0 2.68 0 1.36 0 0 Z " fill="#B3A996" transform="translate(134,191)"/>
<path d="M0 0 C1.32 0 2.64 0 4 0 C3.67 1.65 3.34 3.3 3 5 C2.01 4.67 1.02 4.34 0 4 C0 2.68 0 1.36 0 0 Z " fill="#BAB0A0" transform="translate(29,131)"/>
<path d="M0 0 C0.99 0.33 1.98 0.66 3 1 C2.67 2.32 2.34 3.64 2 5 C1.01 5 0.02 5 -1 5 C-0.67 3.35 -0.34 1.7 0 0 Z " fill="#B4AA98" transform="translate(19,163)"/>
<path d="M0 0 C0.99 0 1.98 0 3 0 C3.66 1.65 4.32 3.3 5 5 C4.01 5.33 3.02 5.66 2 6 C1.34 4.02 0.68 2.04 0 0 Z " fill="#4F6071" transform="translate(128,43)"/>
</svg>
