<svg width="40" height="40" viewBox="0 0 40 40" fill="none" xmlns="http://www.w3.org/2000/svg">
    <defs>
        <linearGradient id="grad_orange" x1="0" y1="0" x2="40" y2="40" gradientUnits="userSpaceOnUse">
            <stop offset="0%" stop-color="#FF8C00"/>
            <stop offset="100%" stop-color="#FF4500"/>
        </linearGradient>
        
        <linearGradient id="grad_green" x1="40" y1="0" x2="0" y2="40" gradientUnits="userSpaceOnUse">
            <stop offset="0%" stop-color="#32CD32"/>
            <stop offset="100%" stop-color="#008000"/>
        </linearGradient>
        
        <linearGradient id="grad_grey" x1="20" y1="0" x2="20" y2="40" gradientUnits="userSpaceOnUse">
            <stop offset="0%" stop-color="#C0C0C0"/>
            <stop offset="100%" stop-color="#696969"/>
        </linearGradient>
    </defs>

    <path d="M7.5 31.5 C11 36 15.5 38 20 38 C24.5 38 29 36 32.5 31.5 L27 27 C25 29 22.5 30 20 30 C17.5 30 15 29 13 27 L7.5 31.5Z" fill="url(#grad_grey)"/>

    <path d="M20 2 C11 2 3 9 3 20 C3 25 5 29 7.5 31.5 L13 27 C11 25 10 22.5 10 20 C10 14.5 14.5 10 20 10 L20 2Z" fill="url(#grad_orange)"/>

    <path d="M20 2 L20 10 C25.5 10 30 14.5 30 20 C30 22.5 29 25 27 27 L32.5 31.5 C35 29 37 25 37 20 C37 9 29 2 20 2Z" fill="url(#grad_green)"/>
</svg>