<?xml version="1.0" encoding="UTF-8"?>
<svg xmlns="http://www.w3.org/2000/svg" xmlns:xlink="http://www.w3.org/1999/xlink" width="34px" height="34px" viewBox="0 0 34 34" version="1.1">
    <title>编组 6</title>
    <defs>
        <linearGradient x1="61.204566%" y1="2.58684432%" x2="38.8146124%" y2="98.6854678%" id="linearGradient-1">
            <stop stop-color="#FF8201" offset="0%"/>
            <stop stop-color="#FB5950" offset="100%"/>
        </linearGradient>
        <linearGradient x1="46.9977396%" y1="1.16351518%" x2="56.1238768%" y2="99.4806173%" id="linearGradient-2">
            <stop stop-color="#FD584E" offset="0%"/>
            <stop stop-color="#8640FF" offset="100%"/>
        </linearGradient>
        <linearGradient x1="39.7964404%" y1="-2.6125653%" x2="60.6648747%" y2="103.034795%" id="linearGradient-3">
            <stop stop-color="#FD584E" offset="0%"/>
            <stop stop-color="#F24CC6" offset="100%"/>
        </linearGradient>
    </defs>
    <g id="控件" stroke="none" stroke-width="1" fill="none" fill-rule="evenodd">
        <g id="编组-6">
            <rect id="矩形" fill="#333333" x="0" y="0" width="34" height="34" rx="4.69999981"/>
            <g id="编组-4" transform="translate(5.000000, 6.000000)" fill-rule="nonzero">
                <path d="M9.81817209,7.68900718 L4.86275358,20.4222512 C4.54505584,21.238197 3.80357361,21.827446 2.91761608,21.9680337 C2.03165854,22.1086214 1.13582373,21.7791892 0.567563955,21.103831 C-0.000695823305,20.4284728 -0.155048388,19.5097917 0.162649378,18.6938458 L5.38498738,5.25570567 C5.98555626,4.67487125 7.65960572,3.47372821 9.13056425,6.33560657 C9.33655648,6.71907008 9.55995649,7.17020361 9.81817209,7.68900718 Z" id="路径" fill="url(#linearGradient-1)"/>
                <path d="M22.7811755,8.46721252 L22.7811755,17.8113159 C22.688334,17.9353776 22.3575859,18.3752328 22.2241262,18.4964749 C22.0906664,18.617717 20.9765676,19.0603918 20.0800663,17.131796 C19.7464169,16.4071627 18.8034948,14.4475514 17.7590272,12.2849301 L17.7590272,8.46721252 C17.7590272,7.11866561 18.8839229,6.02545237 20.271552,6.02545237 C21.6591811,6.02545237 22.7840768,7.11866561 22.7840768,8.46721252 L22.7811755,8.46721252 Z" id="路径" fill="url(#linearGradient-2)"/>
                <path d="M22.7811755,17.8113159 L22.7811755,18.9391497 C22.787031,19.0264642 22.787031,19.1140566 22.7811755,19.2013711 L22.7811755,19.2013711 C22.6017048,19.8072125 22.2844137,20.3661054 21.8527599,20.8367301 L21.8527599,20.8367301 C21.3469727,21.3806219 20.6781824,21.7563919 19.9408039,21.9109918 C17.5240219,22.4410737 16.1226946,20.3968749 16.1226946,20.3968749 C16.1226946,20.3968749 12.0144554,12.0170695 9.83267859,7.70874427 C9.55995649,7.17020361 9.33655648,6.71907008 9.13346555,6.34124574 C7.66250701,3.47936738 5.98845755,4.68051042 5.38788868,5.26134484 L5.92462898,3.88256798 C6.38582048,3.09457104 7.03569709,2.42624493 7.81917716,1.93423503 C8.02430018,1.81505007 8.24348478,1.72037838 8.47196941,1.65227657 C9.83557989,1.23497805 11.7823514,1.61280239 12.4844658,2.29514186 C13.1865801,2.97748133 13.9786347,4.51133534 13.9786347,4.51133534 C13.9786347,4.51133534 16.0095439,8.68150095 17.7503233,12.2849301 C18.7976922,14.4475514 19.7406143,16.4071627 20.0713624,17.131796 C20.9678637,19.0632114 22.0587521,18.6459129 22.2154223,18.4964749 C22.3720924,18.3470369 22.6825314,17.9353776 22.7811755,17.8113159 Z" id="路径" fill="url(#linearGradient-3)"/>
                <ellipse id="椭圆形" fill="#FC5759" cx="20.3766123" cy="2.5" rx="2.62338772" ry="2.5"/>
            </g>
        </g>
    </g>
</svg>
