<svg width="24" height="24" viewBox="0 0 24 24" fill="none" xmlns="http://www.w3.org/2000/svg">
  <path d="M12 2C13.1 2 14 2.9 14 4C14 5.1 13.1 6 12 6C10.9 6 10 5.1 10 4C10 2.9 10.9 2 12 2Z" fill="#FFA500"/>
  <path d="M21 13V11H19C18.45 11 18 11.45 18 12C18 12.55 18.45 13 19 13H21Z" fill="#FFA500"/>
  <path d="M5 13H3V11H5C5.55 11 6 11.45 6 12C6 12.55 5.55 13 5 13Z" fill="#FFA500"/>
  <path d="M17.66 7.93L16.25 6.52C15.86 6.13 15.23 6.13 14.84 6.52C14.45 6.91 14.45 7.54 14.84 7.93L16.25 9.34C16.64 9.73 17.27 9.73 17.66 9.34C18.05 8.95 18.05 8.32 17.66 7.93Z" fill="#FFA500"/>
  <path d="M9.16 14.66L7.75 16.07C7.36 16.46 6.73 16.46 6.34 16.07C5.95 15.68 5.95 15.05 6.34 14.66L7.75 13.25C8.14 12.86 8.77 12.86 9.16 13.25C9.55 13.64 9.55 14.27 9.16 14.66Z" fill="#FFA500"/>
  <circle cx="12" cy="12" r="4" fill="#FFD700"/>
  <path d="M6.76 4.84L6.05 4.13C5.66 3.74 5.03 3.74 4.64 4.13C4.25 4.52 4.25 5.15 4.64 5.54L5.35 6.25C5.74 6.64 6.37 6.64 6.76 6.25C7.15 5.86 7.15 5.23 6.76 4.84Z" fill="#FFA500"/>
  <path d="M19.36 17.17L18.65 17.88C18.26 18.27 17.63 18.27 17.24 17.88C16.85 17.49 16.85 16.86 17.24 16.47L17.95 15.76C18.34 15.37 18.97 15.37 19.36 15.76C19.75 16.15 19.75 16.78 19.36 17.17Z" fill="#FFA500"/>
  <path d="M12 22C10.9 22 10 21.1 10 20C10 18.9 10.9 18 12 18C13.1 18 14 18.9 14 20C14 21.1 13.1 22 12 22Z" fill="#FFA500"/>
</svg>
