<svg xmlns="http://www.w3.org/2000/svg" width="244" height="244" viewBox="0 0 244 244">
  <g id="组_101485" data-name="组 101485" transform="translate(10660 9770)">
    <rect id="矩形_40156" data-name="矩形 40156" width="244" height="244" transform="translate(-10660 -9770)" fill="#fff"/>
    <g id="组_101484" data-name="组 101484" transform="translate(-10624.031 -9741.269)">
      <path id="路径_26493" data-name="路径 26493" d="M1090.942,692.42h-9.661a18.383,18.383,0,0,1,4.655,2.148l.354.355c36.151,15.751,59.411,51.9,59.411,91.267s-23.26,75.521-59.411,91.27c-1.43.715-3.22,1.434-5.01,2.145h29.708c54.4,0,98.783-41.872,98.783-93.415,0-37.22-23.264-70.863-59.055-85.9a105.811,105.811,0,0,0-39.374-7.871Z" transform="translate(-1037.255 -692.42)" fill="#5d1980"/>
      <path id="路径_26494" data-name="路径 26494" d="M1070.107,700.686V822.379c33.285-.358,60.486-27.56,60.486-60.845A60.489,60.489,0,0,0,1070.107,700.686Z" transform="translate(-1070.107 -668.118)" fill="#5d1980"/>
    </g>
  </g>
</svg>
