<?xml version="1.0" standalone="no"?><!DOCTYPE svg PUBLIC "-//W3C//DTD SVG 1.1//EN" "http://www.w3.org/Graphics/SVG/1.1/DTD/svg11.dtd"><svg t="1741415900000" class="icon" viewBox="0 0 1025 1024" version="1.1" xmlns="http://www.w3.org/2000/svg" p-id="5302" xmlns:xlink="http://www.w3.org/1999/xlink" width="64.0625" height="64"><path d="M409.6 0C153.6 0 0 61.44 0 143.36v81.92c0 81.92 153.6 153.6 409.6 153.6s440.32-61.44 440.32-143.36v-92.16C860.16 61.44 675.84 0 409.6 0z m-30.72 747.52c-184.32-10.24-296.96-51.2-358.4-102.4C10.24 665.6 0 675.84 0 696.32v112.64c0 81.92 163.84 143.36 430.08 143.36H512c-71.68-40.96-122.88-112.64-133.12-204.8z m61.44-286.72h-20.48c-215.04 0-337.92-40.96-409.6-102.4C10.24 368.64 0 389.12 0 399.36v122.88c0 71.68 133.12 133.12 368.64 143.36 0-81.92 30.72-153.6 71.68-204.8z m573.44 481.28S849.92 747.52 880.64 778.24c-20.48 20.48-61.44 61.44-92.16 81.92-30.72-51.2 143.36 143.36 143.36 143.36 20.48 20.48 51.2 20.48 81.92 10.24 10.24-20.48 20.48-51.2 0-71.68z" fill="#600c37" p-id="5303"></path><path d="M921.6 808.96c71.68-122.88 40.96-276.48-71.68-358.4-51.2-30.72-102.4-40.96-153.6-40.96-133.12 0-245.76 122.88-245.76 266.24C460.8 808.96 563.2 921.6 696.32 921.6c51.2 0 102.4-10.24 143.36-40.96 30.72-20.48 61.44-40.96 81.92-71.68z m-225.28 51.2C593.92 860.16 512 768 512 665.6s81.92-184.32 184.32-184.32S880.64 563.2 880.64 665.6c10.24 102.4-71.68 194.56-184.32 194.56z" fill="#600c37" p-id="5304"></path></svg>